<?xml version="1.0" standalone="no"?>
<!DOCTYPE svg PUBLIC "-//W3C//DTD SVG 20010904//EN"
 "http://www.w3.org/TR/2001/REC-SVG-20010904/DTD/svg10.dtd">
<svg version="1.0" xmlns="http://www.w3.org/2000/svg"
 width="1279.000000pt" height="1280.000000pt" viewBox="0 0 1279.000000 1280.000000"
 preserveAspectRatio="xMidYMid meet">
<g transform="translate(0.000000,1280.000000) scale(0.100000,-0.100000)"
fill="#000000" stroke="none">
<path d="M6274 12780 c-70 -24 -121 -59 -172 -114 -67 -72 -87 -125 -87 -226
0 -78 3 -90 35 -149 21 -39 56 -83 92 -114 56 -49 58 -54 58 -99 0 -54 2 -52
-100 -83 -119 -36 -131 -72 -40 -117 81 -40 80 -39 80 -130 l0 -82 -45 -42
-45 -41 0 -141 c0 -77 -4 -143 -8 -146 -5 -3 -49 15 -99 40 -258 127 -526 193
-811 201 -410 12 -591 -44 -1140 -351 -276 -155 -366 -184 -514 -165 -142 18
-211 45 -471 188 -43 24 -95 47 -115 52 -79 17 -209 -30 -290 -105 -27 -25
-53 -46 -58 -46 -5 0 -21 14 -35 32 l-26 32 -59 -29 c-69 -33 -174 -133 -174
-165 0 -71 160 -260 221 -260 11 0 28 19 46 53 41 76 60 75 159 -10 104 -91
144 -163 144 -263 0 -81 -23 -120 -71 -120 -33 0 -105 59 -120 97 -12 31 -58
30 -124 -2 -61 -29 -85 -48 -85 -66 0 -20 86 -187 117 -227 14 -18 40 -40 59
-49 52 -25 57 -63 8 -63 -14 0 -40 -6 -58 -14 l-33 -14 -7 -258 c-8 -275 -27
-534 -47 -624 -8 -38 -21 -64 -44 -87 -42 -42 -75 -42 -150 -3 -77 40 -102 39
-121 -5 -7 -19 -14 -59 -14 -89 0 -77 30 -111 111 -127 44 -9 59 -16 59 -29 0
-57 -600 -1787 -1370 -3950 -198 -558 -397 -1118 -442 -1245 -45 -126 -87
-235 -94 -241 -7 -6 -53 -19 -101 -29 -163 -33 -293 -92 -293 -131 0 -25 56
-125 121 -219 78 -109 307 -342 446 -453 465 -368 1003 -588 1658 -678 186
-26 729 -26 933 -1 651 81 1201 286 1687 630 293 207 583 503 654 666 26 60
23 77 -16 92 -36 14 -224 53 -331 69 -57 9 -85 18 -91 29 -5 9 -97 264 -204
566 -108 303 -310 872 -450 1265 -606 1700 -1257 3579 -1257 3626 0 6 27 17
59 23 102 20 138 70 129 178 -5 63 -16 73 -74 73 -31 0 -51 -8 -79 -30 -43
-34 -63 -37 -106 -14 -72 37 -89 165 -89 667 l0 328 -35 15 c-19 7 -54 14 -77
14 -71 0 -92 30 -31 43 44 9 120 63 147 104 40 60 60 154 53 249 -8 113 -30
194 -84 301 -25 50 -42 96 -39 102 14 22 78 10 243 -43 304 -98 432 -126 577
-126 121 0 166 12 546 140 399 134 510 159 745 167 235 8 355 -10 590 -87 100
-33 342 -148 393 -186 31 -24 32 -27 32 -101 0 -72 1 -76 33 -107 18 -17 41
-36 52 -42 18 -10 17 -13 -18 -54 -20 -24 -37 -48 -37 -52 0 -21 55 -80 106
-113 30 -20 54 -38 54 -40 0 -3 -18 -14 -40 -25 -23 -12 -59 -39 -80 -60 l-40
-40 0 -4019 0 -4020 -37 -28 c-57 -43 -193 -204 -193 -229 0 -11 29 -55 65
-97 36 -42 65 -81 65 -86 0 -9 -30 -12 -355 -31 -594 -36 -1169 -151 -1318
-264 -40 -31 -42 -34 -45 -94 -3 -58 -5 -62 -30 -68 -144 -31 -213 -74 -254
-155 -33 -65 -32 -50 -30 -371 l2 -257 30 -34 c144 -165 825 -286 1840 -327
522 -21 614 -22 890 -11 586 24 883 45 1169 82 516 67 819 165 875 284 13 28
16 76 16 297 0 150 -5 279 -10 300 -25 90 -119 169 -225 189 -33 7 -66 16 -72
22 -8 5 -13 32 -13 61 0 44 -4 56 -27 78 -147 138 -738 240 -1626 281 -42 2
-80 7 -84 10 -3 4 31 42 75 86 53 51 82 87 82 101 0 25 -105 138 -187 201
l-53 41 0 4028 0 4027 -44 41 c-24 22 -62 50 -85 61 -23 12 -41 24 -41 26 0 3
19 17 43 31 47 29 127 103 127 118 0 5 -16 28 -35 52 l-36 43 40 25 c53 34 61
52 61 136 0 90 6 96 183 184 159 79 282 124 442 162 112 27 134 28 335 29 165
0 235 -4 301 -18 146 -29 325 -82 559 -165 317 -112 338 -117 505 -117 162 1
234 16 548 115 196 63 243 71 254 44 3 -8 -13 -52 -35 -97 -78 -154 -104 -348
-66 -477 20 -68 99 -150 164 -172 65 -21 59 -42 -15 -49 -33 -3 -70 -9 -82
-13 l-23 -7 0 -292 c0 -298 -12 -530 -31 -615 -12 -57 -50 -99 -96 -108 -27
-5 -39 -1 -68 25 -30 26 -44 31 -85 31 -61 0 -70 -13 -70 -103 0 -93 38 -135
138 -152 23 -4 42 -12 42 -19 0 -13 -219 -668 -378 -1131 -165 -480 -582
-1663 -962 -2730 -186 -522 -386 -1087 -445 -1255 -60 -168 -114 -310 -121
-316 -7 -6 -53 -19 -101 -29 -104 -21 -217 -60 -255 -87 -38 -26 -36 -61 6
-141 52 -101 148 -221 290 -363 493 -491 1121 -787 1896 -891 170 -22 698 -25
885 -5 650 72 1228 283 1715 624 309 218 576 489 671 682 16 33 29 60 29 62 0
18 -196 67 -378 94 -58 9 -85 18 -92 29 -4 9 -107 296 -228 636 -121 341 -325
913 -452 1270 -609 1709 -1230 3504 -1230 3556 0 12 12 19 43 24 74 13 106 31
123 72 29 69 0 183 -47 183 -11 0 -46 -13 -79 -30 -33 -16 -69 -30 -80 -30
-34 0 -79 28 -95 60 -31 61 -65 414 -65 690 0 69 -3 155 -6 192 -6 63 -8 68
-37 78 -16 5 -43 10 -58 10 -15 0 -30 4 -33 8 -9 14 21 48 53 62 34 14 77 74
135 192 45 92 44 96 -49 140 -67 31 -125 37 -125 13 0 -9 -20 -36 -45 -60 -33
-34 -52 -45 -75 -45 -81 0 -103 114 -48 242 25 59 178 208 213 208 27 0 48
-23 68 -72 25 -61 70 -46 161 52 65 71 96 126 96 170 0 41 -76 117 -160 159
-67 33 -82 32 -98 -5 -16 -34 -32 -30 -83 19 -83 79 -215 125 -303 105 -22 -5
-99 -42 -171 -83 -145 -83 -217 -114 -320 -138 -206 -47 -297 -25 -598 147
-532 302 -739 366 -1150 353 -141 -4 -209 -11 -302 -31 -159 -33 -344 -95
-484 -162 -86 -41 -117 -51 -123 -42 -4 7 -8 74 -8 149 0 145 1 143 -59 191
-19 16 -21 28 -21 108 l0 91 53 25 c30 13 62 33 72 44 18 20 18 21 -1 41 -11
11 -58 32 -105 47 l-84 27 -3 51 c-3 49 -1 52 35 80 162 123 203 308 103 462
-46 73 -102 117 -192 153 -80 33 -113 35 -184 9z m-3444 -2871 c0 -65 -2 -70
-26 -79 -14 -6 -43 -10 -64 -10 -21 0 -50 4 -64 10 -24 9 -26 14 -26 75 l0 66
30 -16 c16 -8 47 -15 70 -15 34 0 42 4 50 26 16 42 30 17 30 -57z m7090 56 c8
-21 16 -25 53 -25 23 0 52 7 63 15 28 19 34 11 34 -49 0 -70 -8 -79 -78 -84
-91 -7 -102 3 -102 93 0 77 12 97 30 50z m-7242 -676 c-3 -168 -4 -179 -25
-201 -27 -29 -45 -111 -46 -215 -2 -85 17 -118 73 -137 l35 -11 7 -1475 c4
-811 7 -1979 5 -2595 l-2 -1120 -290 -7 c-821 -19 -1329 -51 -1794 -114 -104
-14 -188 -21 -193 -16 -8 8 100 318 650 1863 481 1349 882 2500 1124 3224 61
182 118 337 127 346 9 9 35 21 59 28 23 6 57 25 76 41 54 48 72 105 85 275 7
83 17 174 22 204 12 60 47 105 74 95 15 -6 16 -27 13 -185z m197 129 c10 -25
23 -110 32 -208 21 -218 33 -264 88 -317 24 -22 57 -44 73 -48 17 -3 35 -12
40 -18 5 -7 53 -142 107 -302 329 -975 646 -1884 1195 -3425 565 -1587 612
-1721 606 -1735 -3 -10 -15 -13 -33 -10 -57 11 -446 55 -693 79 -457 46 -799
69 -1370 94 l-155 7 -7 730 c-4 402 -9 1577 -10 2613 l-3 1882 30 0 c50 0 55
12 55 147 0 99 -4 132 -20 173 -17 43 -20 74 -20 210 0 131 3 161 16 174 22
23 48 6 69 -46z m7050 -136 c0 -144 -3 -172 -19 -201 -21 -39 -32 -198 -19
-271 8 -44 10 -45 48 -48 l40 -3 -2 -2592 c-2 -1426 -5 -2601 -8 -2613 -5 -21
-10 -21 -327 -28 -733 -15 -1276 -50 -1737 -112 -105 -14 -188 -21 -193 -16
-9 9 80 264 632 1812 490 1376 1018 2891 1205 3460 51 155 58 170 84 170 10 0
39 14 65 30 73 47 91 96 110 305 17 190 36 267 68 290 20 13 24 13 38 0 12
-13 15 -46 15 -183z m164 179 c29 -29 40 -80 56 -270 16 -192 30 -237 87 -287
20 -18 59 -39 86 -48 l50 -17 117 -347 c324 -957 690 -2003 1268 -3627 184
-517 378 -1063 432 -1213 53 -150 94 -280 91 -288 -3 -9 -14 -13 -28 -9 -35 7
-515 62 -748 84 -429 42 -907 74 -1293 87 -138 5 -210 11 -213 18 -2 6 -1
1174 3 2596 l8 2584 45 16 c38 13 47 21 58 55 22 65 -4 285 -33 285 -27 0 -34
38 -41 197 -8 193 4 235 55 184z"/>
</g>
</svg>
